<?xml version="1.0" encoding="utf-8"?>
<!-- Generator: Adobe Illustrator 26.4.1, SVG Export Plug-In . SVG Version: 6.00 Build 0)  -->
<svg version="1.1" id="Layer_1" xmlns="http://www.w3.org/2000/svg" xmlns:xlink="http://www.w3.org/1999/xlink" x="0px" y="0px"
	 viewBox="0 0 50 50" style="enable-background:new 0 0 50 50;" xml:space="preserve">
<style type="text/css">
	.st0{fill:#D3D3D3;}
</style>
<g>
	<g>
		<path class="st0" d="M24.5,10.86l-3.86,6.67c-0.21,0.37,0.05,0.83,0.47,0.83h7.7c0.43,0,0.69-0.45,0.47-0.83l-3.85-6.67
			C25.24,10.5,24.71,10.5,24.5,10.86z"/>
		<path class="st0" d="M25.45,39.14l3.86-6.67c0.21-0.37-0.05-0.83-0.47-0.83h-7.71c-0.43,0-0.69,0.45-0.47,0.83l3.86,6.67
			C24.71,39.5,25.24,39.5,25.45,39.14z"/>
		<rect x="23.54" y="15.83" class="st0" width="2.89" height="17.38"/>
	</g>
	<g>
		<g>
			<path class="st0" d="M10.86,25.47l6.67,3.86c0.37,0.21,0.83-0.05,0.83-0.47v-7.7c0-0.43-0.45-0.69-0.83-0.47l-6.67,3.85
				C10.5,24.74,10.5,25.26,10.86,25.47z"/>
			<path class="st0" d="M39.14,24.53l-6.67-3.86c-0.37-0.21-0.83,0.05-0.83,0.47v7.7c0,0.43,0.45,0.69,0.83,0.47l6.67-3.86
				C39.5,25.26,39.5,24.74,39.14,24.53z"/>
			<rect x="15.83" y="23.55" class="st0" width="17.38" height="2.89"/>
		</g>
	</g>
</g>
</svg>
