<?xml version="1.0" encoding="utf-8"?>
<!-- Generator: Adobe Illustrator 26.4.1, SVG Export Plug-In . SVG Version: 6.00 Build 0)  -->
<svg version="1.1" id="Layer_1" xmlns="http://www.w3.org/2000/svg" xmlns:xlink="http://www.w3.org/1999/xlink" x="0px" y="0px"
	 viewBox="0 0 50 50" style="enable-background:new 0 0 50 50;" xml:space="preserve">
<style type="text/css">
	.st0{fill:#50A1D3;}
</style>
<g>
	<g>
		<path class="st0" d="M44,29.4H6c-0.7,0-1.2-0.5-1.2-1.2v-6.3c0-0.7,0.6-1.2,1.2-1.2h38c0.7,0,1.2,0.5,1.2,1.2v6.3
			C45.2,28.9,44.7,29.4,44,29.4z"/>
	</g>
	<g>
		<path class="st0" d="M29.4,6v38c0,0.7-0.5,1.2-1.2,1.2h-6.3c-0.7,0-1.2-0.5-1.2-1.2V6c0-0.7,0.5-1.2,1.2-1.2h6.3
			C28.9,4.8,29.4,5.3,29.4,6z"/>
	</g>
</g>
</svg>
