<?xml version="1.0" encoding="utf-8"?>
<!-- Generator: Adobe Illustrator 26.4.1, SVG Export Plug-In . SVG Version: 6.00 Build 0)  -->
<svg version="1.1" id="Layer_1" xmlns="http://www.w3.org/2000/svg" xmlns:xlink="http://www.w3.org/1999/xlink" x="0px" y="0px"
	 viewBox="0 0 50 50" style="enable-background:new 0 0 50 50;" xml:space="preserve">
<style type="text/css">
	.st0{fill:#D3D3D3;}
</style>
<path class="st0" d="M36.72,8.29L6.69,30.9c-0.47,0.35-0.6,0.95-0.28,1.37l6.05,8.04c0.3,0.41,0.92,0.46,1.39,0.1l5.02-3.79
	l-2.41-3.2l1.33-1l2.41,3.2l0.8-0.61l-1.36-1.8l1.33-1l1.36,1.8l1.06-0.8l-1.36-1.8l1.33-1l1.36,1.8l0.8-0.61l-1.36-1.8l1.33-1
	l1.36,1.8l1.06-0.8l-2.41-3.2l1.33-1l2.41,3.2l0.8-0.61l-1.36-1.8l1.33-1l1.36,1.8l1.06-0.8l-1.36-1.8l1.33-1l1.36,1.8l0.8-0.61
	L33.21,23l1.33-1l1.36,1.8l0.8-0.61l-2.41-3.2l1.33-1l2.41,3.2l5.81-4.38c0.47-0.35,0.6-0.95,0.28-1.37l-6.03-8.07
	C37.81,7.99,37.18,7.94,36.72,8.29z"/>
</svg>
